<svg width="608" height="202" viewBox="0 0 608 202" fill="none" xmlns="http://www.w3.org/2000/svg">
<path d="M190.299 166.291L68.3142 201.21H19.6121L129.881 166.291H190.299Z" fill="#BEA787"/>
<path d="M68.0866 0.195312L6.51978 201.436H68.0866L128.735 0.195312H68.0866Z" fill="#C0B398"/>
<path d="M128.728 0.195312L189.836 166.288H129.647L101.85 88.8699L128.728 0.195312Z" fill="#907F6D"/>
<path d="M85.7771 142.629L101.858 88.8729L190.662 50.8652L175.274 101.532L85.7771 142.629Z" fill="#B9841E"/>
<path d="M31.3298 120.346L35.4649 106.563L117.248 38.334L102.086 88.1847L31.3298 120.346Z" fill="white"/>
<path d="M0 122.928L16.165 68.8908L121.38 24.7832L106.218 74.6339L0 122.928Z" fill="#B9841E"/>
<path d="M153.312 66.8198L129.078 4.90625L70.2361 199.086L188.509 165.546L167.326 105.184" stroke="#6E6755" stroke-width="3.21618"/>
<line x1="234.162" y1="13.3164" x2="234.162" y2="188.316" stroke="#6E6755" stroke-width="3"/>
<path d="M283.504 185.375V165.62H280.106V163.456H289.299V165.62H285.915V185.375H283.504ZM296.056 185.375V163.456H300.357C301.809 163.456 302.864 163.748 303.522 164.332C304.179 164.917 304.526 165.88 304.563 167.223C304.6 168.045 304.622 168.789 304.632 169.456C304.641 170.123 304.641 170.767 304.632 171.388C304.622 172.009 304.6 172.662 304.563 173.347C304.526 174.242 304.362 174.963 304.07 175.511C303.778 176.059 303.321 176.461 302.7 176.717L304.974 185.375H302.426L300.398 177.114H298.467V185.375H296.056ZM298.467 174.95H300.344C300.983 174.95 301.439 174.835 301.713 174.607C301.987 174.37 302.134 173.981 302.152 173.443C302.179 172.666 302.198 171.945 302.207 171.278C302.225 170.611 302.229 169.949 302.22 169.292C302.22 168.625 302.198 167.903 302.152 167.127C302.124 166.579 301.974 166.191 301.7 165.963C301.435 165.734 300.987 165.62 300.357 165.62H298.467V174.95ZM311.481 185.375L313.933 163.456H318.728L321.153 185.375H318.687L318.139 179.375H314.509L313.961 185.375H311.481ZM314.728 177.21H317.934L317.495 172.552L316.92 165.62H315.728L315.153 172.552L314.728 177.21ZM328.422 185.375V163.456H332.765C334.299 163.456 335.404 163.757 336.08 164.36C336.756 164.962 337.103 165.958 337.121 167.346C337.149 169.027 337.167 170.625 337.176 172.141C337.185 173.657 337.185 175.173 337.176 176.689C337.167 178.196 337.149 179.79 337.121 181.471C337.103 182.859 336.765 183.859 336.108 184.471C335.45 185.074 334.381 185.375 332.902 185.375H328.422ZM330.833 183.21H332.902C333.55 183.21 334.012 183.092 334.286 182.854C334.559 182.617 334.701 182.224 334.71 181.676C334.747 180.324 334.774 179.059 334.792 177.881C334.811 176.694 334.82 175.539 334.82 174.415C334.82 173.283 334.811 172.123 334.792 170.936C334.774 169.748 334.747 168.479 334.71 167.127C334.701 166.588 334.55 166.205 334.258 165.976C333.966 165.739 333.468 165.62 332.765 165.62H330.833V183.21ZM345.154 185.375V163.456H347.565V185.375H345.154ZM355.758 185.375V163.456H360.485L361.759 170.401L363.553 183.197H364.732L364.403 171.415L364.252 163.456H366.691V185.375H361.786L360.416 177.594L358.923 165.606H357.704L358.005 177.142L358.183 185.375H355.758ZM379.242 185.58C378.173 185.58 377.31 185.443 376.652 185.17C375.995 184.896 375.515 184.466 375.214 183.882C374.913 183.288 374.748 182.516 374.721 181.566C374.693 180.397 374.675 179.219 374.666 178.032C374.657 176.836 374.652 175.639 374.652 174.443C374.652 173.246 374.657 172.054 374.666 170.867C374.675 169.68 374.693 168.506 374.721 167.346C374.748 166.369 374.913 165.579 375.214 164.976C375.524 164.373 376.004 163.935 376.652 163.661C377.31 163.387 378.168 163.25 379.228 163.25C380.79 163.25 381.908 163.561 382.584 164.182C383.269 164.794 383.644 165.812 383.708 167.237C383.735 167.903 383.749 168.552 383.749 169.182C383.749 169.803 383.735 170.451 383.708 171.127H381.297C381.324 170.378 381.338 169.693 381.338 169.072C381.338 168.451 381.324 167.771 381.297 167.031C381.26 166.374 381.1 165.921 380.817 165.675C380.534 165.428 380.004 165.305 379.228 165.305C378.433 165.305 377.89 165.428 377.598 165.675C377.315 165.921 377.159 166.374 377.132 167.031C377.095 168.355 377.068 169.625 377.05 170.84C377.031 172.045 377.022 173.237 377.022 174.415C377.022 175.584 377.031 176.772 377.05 177.977C377.068 179.183 377.095 180.452 377.132 181.786C377.159 182.443 377.315 182.895 377.598 183.142C377.89 183.389 378.438 183.512 379.242 183.512C380.082 183.512 380.648 183.389 380.94 183.142C381.242 182.895 381.411 182.443 381.447 181.786C381.456 181.366 381.461 180.955 381.461 180.553C381.47 180.151 381.47 179.754 381.461 179.361C381.461 178.959 381.456 178.548 381.447 178.128H379.351V175.95H383.804C383.831 177.055 383.84 178.059 383.831 178.964C383.831 179.859 383.817 180.726 383.79 181.566C383.744 183 383.374 184.028 382.68 184.649C381.995 185.27 380.849 185.58 379.242 185.58ZM406.509 185.58C404.938 185.58 403.814 185.256 403.139 184.608C402.463 183.959 402.097 182.923 402.043 181.498C402.024 180.84 402.015 180.283 402.015 179.827C402.015 179.361 402.029 178.932 402.056 178.539C402.093 178.137 402.143 177.708 402.207 177.251C402.28 176.383 402.504 175.667 402.878 175.1C403.253 174.534 403.677 174.018 404.152 173.552C403.687 172.493 403.303 171.442 403.002 170.401C402.7 169.36 402.531 168.378 402.495 167.456C402.412 166.104 402.686 165.063 403.317 164.332C403.956 163.602 404.974 163.236 406.372 163.236C407.824 163.236 408.86 163.588 409.481 164.291C410.112 164.994 410.377 166.013 410.276 167.346C410.221 168.506 409.943 169.588 409.44 170.593C408.938 171.598 408.29 172.52 407.495 173.36C407.431 173.433 407.344 173.525 407.235 173.634C407.134 173.744 407.029 173.863 406.92 173.991C407.267 174.676 407.637 175.361 408.029 176.046C408.422 176.731 408.819 177.397 409.221 178.046C409.212 177.452 409.185 176.845 409.139 176.224C409.093 175.603 409.025 174.963 408.933 174.306L410.947 174.292C411.011 174.849 411.071 175.507 411.125 176.265C411.18 177.023 411.217 177.799 411.235 178.594C411.262 179.388 411.262 180.123 411.235 180.799C411.692 181.42 412.13 182 412.55 182.539C412.97 183.069 413.345 183.535 413.674 183.937L412.057 185.402C411.82 185.11 411.568 184.813 411.304 184.512C411.048 184.201 410.787 183.877 410.523 183.539C410.322 184.005 410.048 184.389 409.701 184.69C409.354 184.991 408.915 185.215 408.385 185.361C407.865 185.507 407.239 185.58 406.509 185.58ZM406.563 183.621C407.148 183.621 407.586 183.548 407.879 183.402C408.18 183.256 408.395 183.019 408.522 182.69C408.65 182.361 408.76 181.923 408.851 181.375C408.221 180.507 407.605 179.603 407.002 178.662C406.399 177.712 405.833 176.753 405.303 175.785C405.13 175.995 404.974 176.228 404.837 176.484C404.7 176.74 404.609 177.036 404.563 177.374C404.518 177.703 404.477 178.05 404.44 178.416C404.413 178.772 404.39 179.201 404.371 179.703C404.362 180.197 404.371 180.813 404.399 181.553C404.435 182.201 404.618 182.708 404.947 183.073C405.276 183.439 405.815 183.621 406.563 183.621ZM405.933 171.99C406.152 171.716 406.426 171.388 406.755 171.004C407.093 170.611 407.395 170.123 407.659 169.538C407.933 168.954 408.089 168.232 408.125 167.374C408.207 166.57 408.121 165.958 407.865 165.538C407.618 165.109 407.121 164.894 406.372 164.894C405.76 164.894 405.321 165.095 405.056 165.497C404.801 165.899 404.677 166.442 404.687 167.127C404.696 167.839 404.81 168.611 405.029 169.442C405.257 170.273 405.559 171.123 405.933 171.99ZM436.615 185.58C435.072 185.58 433.944 185.275 433.231 184.663C432.519 184.042 432.154 183.019 432.135 181.594C432.117 180.288 432.103 179.05 432.094 177.881C432.085 176.703 432.081 175.548 432.081 174.415C432.081 173.283 432.085 172.132 432.094 170.963C432.103 169.794 432.117 168.556 432.135 167.25C432.154 165.853 432.519 164.844 433.231 164.223C433.953 163.593 435.076 163.277 436.601 163.277C438.127 163.277 439.245 163.597 439.958 164.236C440.679 164.867 441.068 165.871 441.122 167.25C441.15 167.707 441.163 168.145 441.163 168.566C441.173 168.986 441.173 169.406 441.163 169.826C441.154 170.246 441.136 170.689 441.109 171.155H438.697C438.716 170.68 438.725 170.228 438.725 169.798C438.734 169.369 438.739 168.94 438.739 168.511C438.739 168.072 438.729 167.62 438.711 167.154C438.693 166.46 438.524 165.981 438.204 165.716C437.885 165.451 437.35 165.319 436.601 165.319C435.871 165.319 435.35 165.451 435.04 165.716C434.729 165.981 434.565 166.46 434.547 167.154C434.519 168.534 434.496 169.812 434.478 170.99C434.46 172.169 434.451 173.315 434.451 174.429C434.451 175.534 434.46 176.676 434.478 177.854C434.496 179.023 434.519 180.302 434.547 181.69C434.565 182.384 434.729 182.868 435.04 183.142C435.359 183.407 435.885 183.539 436.615 183.539C437.401 183.539 437.958 183.407 438.287 183.142C438.615 182.868 438.793 182.384 438.821 181.69C438.839 181.27 438.848 180.863 438.848 180.471C438.848 180.069 438.844 179.626 438.834 179.142C438.834 178.658 438.825 178.087 438.807 177.429H441.218C441.246 178.251 441.264 178.991 441.273 179.649C441.282 180.306 441.268 180.955 441.232 181.594C441.177 183.019 440.789 184.042 440.067 184.663C439.355 185.275 438.204 185.58 436.615 185.58ZM453.293 185.58C451.731 185.58 450.603 185.261 449.909 184.622C449.215 183.982 448.859 182.932 448.84 181.471C448.822 180.128 448.808 178.881 448.799 177.731C448.79 176.571 448.786 175.447 448.786 174.36C448.786 173.264 448.79 172.15 448.799 171.018C448.808 169.876 448.822 168.657 448.84 167.36C448.859 165.89 449.215 164.839 449.909 164.209C450.603 163.57 451.731 163.25 453.293 163.25C454.855 163.25 455.978 163.57 456.663 164.209C457.357 164.839 457.722 165.89 457.759 167.36C457.786 168.666 457.805 169.89 457.814 171.031C457.832 172.164 457.841 173.278 457.841 174.374C457.841 175.461 457.832 176.58 457.814 177.731C457.805 178.881 457.786 180.128 457.759 181.471C457.722 182.932 457.357 183.982 456.663 184.622C455.978 185.261 454.855 185.58 453.293 185.58ZM453.293 183.512C454.051 183.512 454.576 183.375 454.868 183.101C455.17 182.818 455.325 182.306 455.334 181.566C455.38 180.206 455.412 178.95 455.43 177.799C455.448 176.639 455.457 175.516 455.457 174.429C455.457 173.333 455.448 172.205 455.43 171.045C455.412 169.885 455.38 168.625 455.334 167.264C455.325 166.524 455.17 166.013 454.868 165.73C454.576 165.447 454.051 165.305 453.293 165.305C452.544 165.305 452.019 165.447 451.717 165.73C451.425 166.013 451.27 166.524 451.252 167.264C451.215 168.597 451.188 169.84 451.169 170.99C451.151 172.132 451.142 173.251 451.142 174.347C451.142 175.434 451.151 176.562 451.169 177.731C451.188 178.9 451.215 180.178 451.252 181.566C451.27 182.306 451.425 182.818 451.717 183.101C452.019 183.375 452.544 183.512 453.293 183.512ZM465.817 185.375V163.456H470.543L471.817 170.401L473.612 183.197H474.79L474.461 171.415L474.311 163.456H476.749V185.375H471.845L470.475 177.594L468.981 165.606H467.762L468.064 177.142L468.242 185.375H465.817ZM486.889 185.375V165.62H483.492V163.456H492.684V165.62H489.3V185.375H486.889ZM499.441 185.375V163.456H503.743C505.195 163.456 506.25 163.748 506.907 164.332C507.565 164.917 507.912 165.88 507.948 167.223C507.985 168.045 508.008 168.789 508.017 169.456C508.026 170.123 508.026 170.767 508.017 171.388C508.008 172.009 507.985 172.662 507.948 173.347C507.912 174.242 507.748 174.963 507.455 175.511C507.163 176.059 506.706 176.461 506.085 176.717L508.359 185.375H505.811L503.784 177.114H501.852V185.375H499.441ZM501.852 174.95H503.729C504.368 174.95 504.825 174.835 505.099 174.607C505.373 174.37 505.519 173.981 505.537 173.443C505.565 172.666 505.583 171.945 505.592 171.278C505.61 170.611 505.615 169.949 505.606 169.292C505.606 168.625 505.583 167.903 505.537 167.127C505.51 166.579 505.359 166.191 505.085 165.963C504.82 165.734 504.373 165.62 503.743 165.62H501.852V174.95ZM514.867 185.375L517.319 163.456H522.114L524.539 185.375H522.073L521.525 179.375H517.894L517.346 185.375H514.867ZM518.113 177.21H521.319L520.881 172.552L520.305 165.62H519.113L518.538 172.552L518.113 177.21ZM536.016 185.58C534.472 185.58 533.344 185.275 532.632 184.663C531.92 184.042 531.554 183.019 531.536 181.594C531.518 180.288 531.504 179.05 531.495 177.881C531.486 176.703 531.481 175.548 531.481 174.415C531.481 173.283 531.486 172.132 531.495 170.963C531.504 169.794 531.518 168.556 531.536 167.25C531.554 165.853 531.92 164.844 532.632 164.223C533.354 163.593 534.477 163.277 536.002 163.277C537.527 163.277 538.646 163.597 539.359 164.236C540.08 164.867 540.468 165.871 540.523 167.25C540.55 167.707 540.564 168.145 540.564 168.566C540.573 168.986 540.573 169.406 540.564 169.826C540.555 170.246 540.537 170.689 540.509 171.155H538.098C538.116 170.68 538.126 170.228 538.126 169.798C538.135 169.369 538.139 168.94 538.139 168.511C538.139 168.072 538.13 167.62 538.112 167.154C538.094 166.46 537.925 165.981 537.605 165.716C537.285 165.451 536.751 165.319 536.002 165.319C535.272 165.319 534.751 165.451 534.44 165.716C534.13 165.981 533.965 166.46 533.947 167.154C533.92 168.534 533.897 169.812 533.879 170.99C533.86 172.169 533.851 173.315 533.851 174.429C533.851 175.534 533.86 176.676 533.879 177.854C533.897 179.023 533.92 180.302 533.947 181.69C533.965 182.384 534.13 182.868 534.44 183.142C534.76 183.407 535.285 183.539 536.016 183.539C536.801 183.539 537.358 183.407 537.687 183.142C538.016 182.868 538.194 182.384 538.222 181.69C538.24 181.27 538.249 180.863 538.249 180.471C538.249 180.069 538.244 179.626 538.235 179.142C538.235 178.658 538.226 178.087 538.208 177.429H540.619C540.646 178.251 540.665 178.991 540.674 179.649C540.683 180.306 540.669 180.955 540.633 181.594C540.578 183.019 540.19 184.042 539.468 184.663C538.756 185.275 537.605 185.58 536.016 185.58ZM550.204 185.375V165.62H546.806V163.456H555.999V165.62H552.615V185.375H550.204ZM562.756 185.375V163.456H565.167V185.375H562.756ZM573.36 185.375V163.456H578.087L579.361 170.401L581.155 183.197H582.334L582.005 171.415L581.854 163.456H584.293V185.375H579.388L578.018 177.594L576.525 165.606H575.306L575.607 177.142L575.785 185.375H573.36ZM596.844 185.58C595.775 185.58 594.912 185.443 594.254 185.17C593.597 184.896 593.117 184.466 592.816 183.882C592.515 183.288 592.35 182.516 592.323 181.566C592.295 180.397 592.277 179.219 592.268 178.032C592.259 176.836 592.254 175.639 592.254 174.443C592.254 173.246 592.259 172.054 592.268 170.867C592.277 169.68 592.295 168.506 592.323 167.346C592.35 166.369 592.515 165.579 592.816 164.976C593.126 164.373 593.606 163.935 594.254 163.661C594.912 163.387 595.771 163.25 596.83 163.25C598.392 163.25 599.511 163.561 600.186 164.182C600.871 164.794 601.246 165.812 601.31 167.237C601.337 167.903 601.351 168.552 601.351 169.182C601.351 169.803 601.337 170.451 601.31 171.127H598.899C598.926 170.378 598.94 169.693 598.94 169.072C598.94 168.451 598.926 167.771 598.899 167.031C598.862 166.374 598.702 165.921 598.419 165.675C598.136 165.428 597.606 165.305 596.83 165.305C596.035 165.305 595.492 165.428 595.2 165.675C594.917 165.921 594.761 166.374 594.734 167.031C594.697 168.355 594.67 169.625 594.652 170.84C594.633 172.045 594.624 173.237 594.624 174.415C594.624 175.584 594.633 176.772 594.652 177.977C594.67 179.183 594.697 180.452 594.734 181.786C594.761 182.443 594.917 182.895 595.2 183.142C595.492 183.389 596.04 183.512 596.844 183.512C597.684 183.512 598.25 183.389 598.542 183.142C598.844 182.895 599.013 182.443 599.049 181.786C599.058 181.366 599.063 180.955 599.063 180.553C599.072 180.151 599.072 179.754 599.063 179.361C599.063 178.959 599.058 178.548 599.049 178.128H596.953V175.95H601.406C601.433 177.055 601.442 178.059 601.433 178.964C601.433 179.859 601.419 180.726 601.392 181.566C601.346 183 600.976 184.028 600.282 184.649C599.597 185.27 598.451 185.58 596.844 185.58Z" fill="#524C3D"/>
<path d="M275.708 142.386L297.845 19.7615C297.961 19.2967 298.252 19.0643 298.716 19.0643H324.601C325.066 19.0643 325.356 19.2967 325.473 19.7615L346.738 142.386C346.796 142.967 346.564 143.258 346.041 143.258H326.257C325.676 143.258 325.356 142.967 325.298 142.386L323.381 129.313H299.065L297.148 142.386C297.09 142.967 296.799 143.258 296.276 143.258H276.405C275.94 143.258 275.708 142.967 275.708 142.386ZM312.487 60.1135L311.441 53.4899L310.656 60.1135L302.638 110.227H319.808L312.487 60.1135ZM378.81 143.258H358.591C358.126 143.258 357.894 142.967 357.894 142.386L358.068 19.7615C358.068 19.2967 358.358 19.0643 358.939 19.0643H378.81C379.391 19.0643 379.682 19.2967 379.682 19.7615L379.508 68.3059H406.264V19.7615C406.264 19.2967 406.496 19.0643 406.961 19.0643H426.832C427.413 19.0643 427.703 19.2967 427.703 19.7615L428.052 142.386C428.052 142.967 427.761 143.258 427.18 143.258H407.135C406.554 143.258 406.264 142.967 406.264 142.386V89.92H379.508V142.386C379.508 142.967 379.275 143.258 378.81 143.258ZM463.523 143.258H443.304C442.839 143.258 442.607 142.967 442.607 142.386L442.955 19.7615C442.955 19.2967 443.188 19.0643 443.652 19.0643H465.441C465.906 19.0643 466.312 19.2967 466.661 19.7615L482.959 43.2929L499.169 19.7615C499.518 19.2967 499.954 19.0643 500.476 19.0643H522.352C522.875 19.0643 523.136 19.2967 523.136 19.7615L523.485 142.386C523.485 142.967 523.253 143.258 522.788 143.258H502.568C502.103 143.258 501.871 142.967 501.871 142.386L501.697 51.311L482.959 78.5029L464.395 51.311L464.221 142.386C464.221 142.967 463.988 143.258 463.523 143.258ZM532.462 142.386L554.599 19.7615C554.715 19.2967 555.005 19.0643 555.47 19.0643H581.355C581.82 19.0643 582.11 19.2967 582.226 19.7615L603.492 142.386C603.55 142.967 603.317 143.258 602.794 143.258H583.011C582.43 143.258 582.11 142.967 582.052 142.386L580.135 129.313H555.819L553.901 142.386C553.843 142.967 553.553 143.258 553.03 143.258H533.159C532.694 143.258 532.462 142.967 532.462 142.386ZM569.24 60.1135L568.195 53.4899L567.41 60.1135L559.392 110.227H576.561L569.24 60.1135Z" fill="#6E6755"/>
</svg>
